<svg xmlns="http://www.w3.org/2000/svg" xmlns:xlink="http://www.w3.org/1999/xlink" viewBox="0 0 906.33 1027.22">
  <defs>
    <style>
      .cls-1 {
        fill: none;
        clip-rule: evenodd;
      }

      .cls-2 {
        clip-path: url(#clip-path);
      }

      .cls-3 {
        fill: #1f2734;
      }

      .cls-4 {
        clip-path: url(#clip-path-2);
      }

      .cls-5 {
        fill: #7ae9c5;
        opacity: 0.9;
      }
    </style>
    <clipPath id="clip-path">
      <path class="cls-1" d="M626.33,935.91,460,905.65a40,40,0,0,1-24.78-63.43l90.89-120.61a40,40,0,0,1,67.72,6.19l75.42,150.87a40,40,0,0,1-42.95,57.24Z"/>
    </clipPath>
    <clipPath id="clip-path-2">
      <path class="cls-1" d="M808.51,474.32,697.79,711.78C651.11,811.88,532.11,855.2,432,808.51L194.55,697.79C94.44,651.11,51.13,532.11,97.81,432L208.54,194.55C255.22,94.44,374.22,51.13,474.32,97.81L711.78,208.54C811.88,255.22,855.2,374.22,808.51,474.32Z"/>
    </clipPath>
  </defs>
  <title>Asset 6</title>
  <g id="Layer_2" data-name="Layer 2">
    <g id="Layer_1-2" data-name="Layer 1">
      <g class="cls-2">
        <rect class="cls-3" x="447.43" y="725.92" width="251.03" height="251.03" transform="translate(-451.85 796.61) rotate(-53)"/>
      </g>
      <g class="cls-4">
        <rect class="cls-5" x="112.16" y="112.16" width="682" height="682" transform="translate(-149.06 672.35) rotate(-65)"/>
      </g>
    </g>
  </g>
</svg>
